<svg width="1200" height="360" viewBox="0 0 1200 360" fill="none" xmlns="http://www.w3.org/2000/svg">
  <defs>
    <linearGradient id="bg" x1="0" y1="0" x2="1200" y2="360" gradientUnits="userSpaceOnUse">
      <stop stop-color="#0D1117"/>
      <stop offset="0.44" stop-color="#101A2D"/>
      <stop offset="1" stop-color="#17101F"/>
    </linearGradient>
    <linearGradient id="line" x1="120" y1="84" x2="1080" y2="276" gradientUnits="userSpaceOnUse">
      <stop stop-color="#58A6FF"/>
      <stop offset="0.52" stop-color="#7EE787"/>
      <stop offset="1" stop-color="#F78166"/>
    </linearGradient>
    <filter id="softGlow" x="-40%" y="-40%" width="180%" height="180%" color-interpolation-filters="sRGB">
      <feGaussianBlur stdDeviation="22" result="blur"/>
      <feColorMatrix in="blur" type="matrix" values="0 0 0 0 0.35 0 0 0 0 0.65 0 0 0 0 1 0 0 0 0.45 0"/>
      <feBlend in="SourceGraphic"/>
    </filter>
  </defs>

  <rect width="1200" height="360" rx="28" fill="url(#bg)"/>
  <path d="M0 300C150 250 230 330 390 280C550 230 580 110 750 120C920 130 980 250 1200 190V360H0V300Z" fill="#161B22" opacity="0.78"/>
  <path d="M88 268C202 198 282 224 380 164C478 104 570 68 686 104C802 140 868 230 1028 126" stroke="url(#line)" stroke-width="3" opacity="0.85"/>
  <path d="M88 268C202 198 282 224 380 164C478 104 570 68 686 104C802 140 868 230 1028 126" stroke="url(#line)" stroke-width="12" opacity="0.22" filter="url(#softGlow)"/>

  <g opacity="0.22">
    <path d="M120 84H1080" stroke="#30363D"/>
    <path d="M120 132H1080" stroke="#30363D"/>
    <path d="M120 180H1080" stroke="#30363D"/>
    <path d="M120 228H1080" stroke="#30363D"/>
    <path d="M240 60V292" stroke="#30363D"/>
    <path d="M420 60V292" stroke="#30363D"/>
    <path d="M600 60V292" stroke="#30363D"/>
    <path d="M780 60V292" stroke="#30363D"/>
    <path d="M960 60V292" stroke="#30363D"/>
  </g>

  <g transform="translate(86 76)">
    <rect x="0" y="0" width="138" height="34" rx="17" fill="#21262D" stroke="#30363D"/>
    <circle cx="20" cy="17" r="6" fill="#7EE787"/>
    <text x="38" y="22" fill="#C9D1D9" font-family="Inter,Segoe UI,Arial,sans-serif" font-size="14" font-weight="700">OPEN TO BUILD</text>
  </g>

  <text x="84" y="178" fill="#F0F6FC" font-family="Inter,Segoe UI,Arial,sans-serif" font-size="64" font-weight="800" letter-spacing="0">Adel E.</text>
  <text x="88" y="224" fill="#8B949E" font-family="Inter,Segoe UI,Arial,sans-serif" font-size="26" font-weight="600">Practical software. AI tools. Product experiments.</text>

  <g transform="translate(88 256)">
    <rect x="0" y="0" width="122" height="38" rx="19" fill="#0D1117" stroke="#30363D"/>
    <text x="24" y="25" fill="#58A6FF" font-family="Inter,Segoe UI,Arial,sans-serif" font-size="15" font-weight="700">TypeScript</text>
    <rect x="136" y="0" width="94" height="38" rx="19" fill="#0D1117" stroke="#30363D"/>
    <text x="160" y="25" fill="#7EE787" font-family="Inter,Segoe UI,Arial,sans-serif" font-size="15" font-weight="700">Python</text>
    <rect x="244" y="0" width="80" height="38" rx="19" fill="#0D1117" stroke="#30363D"/>
    <text x="268" y="25" fill="#F78166" font-family="Inter,Segoe UI,Arial,sans-serif" font-size="15" font-weight="700">Swift</text>
  </g>

  <g transform="translate(875 80)" opacity="0.95">
    <rect x="0" y="0" width="238" height="178" rx="18" fill="#0D1117" stroke="#30363D"/>
    <text x="24" y="42" fill="#8B949E" font-family="Inter,Segoe UI,Arial,sans-serif" font-size="15" font-weight="700">CURRENTLY</text>
    <text x="24" y="78" fill="#F0F6FC" font-family="Inter,Segoe UI,Arial,sans-serif" font-size="22" font-weight="800">Shipping tools</text>
    <text x="24" y="110" fill="#C9D1D9" font-family="Inter,Segoe UI,Arial,sans-serif" font-size="16">web apps, AI workflows,</text>
    <text x="24" y="135" fill="#C9D1D9" font-family="Inter,Segoe UI,Arial,sans-serif" font-size="16">and Apple utilities</text>
  </g>
</svg>
